<?xml version="1.0" encoding="utf-8"?>
<svg version="1.1" xmlns:xlink="http://www.w3.org/1999/xlink" width="140px" height="40px" xmlns="http://www.w3.org/2000/svg">
  <g transform="matrix(1 0 0 1 1628 -1435 )">
    <path d="M -1627.5 1445  A 9.5 9.5 0 0 1 -1618 1435.5 L -1498 1435.5  A 9.5 9.5 0 0 1 -1488.5 1445 L -1488.5 1465  A 9.5 9.5 0 0 1 -1498 1474.5 L -1618 1474.5  A 9.5 9.5 0 0 1 -1627.5 1465 L -1627.5 1445  Z " fill-rule="nonzero" fill="#f56c6c" stroke="none" />
    <path d="M -1627.5 1445  A 9.5 9.5 0 0 1 -1618 1435.5 L -1498 1435.5  A 9.5 9.5 0 0 1 -1488.5 1445 L -1488.5 1465  A 9.5 9.5 0 0 1 -1498 1474.5 L -1618 1474.5  A 9.5 9.5 0 0 1 -1627.5 1465 L -1627.5 1445  Z " stroke-width="1" stroke="#f56c6c" fill="none" />
  </g>
</svg>