<?xml version="1.0" encoding="utf-8"?>
<svg version="1.1" xmlns:xlink="http://www.w3.org/1999/xlink" width="80px" height="30px" xmlns="http://www.w3.org/2000/svg">
  <g transform="matrix(1 0 0 1 -286 -5 )">
    <path d="M 287 20  A 14 14 0 0 1 301 6 L 351 6  A 14 14 0 0 1 365 20 A 14 14 0 0 1 351 34 L 301 34  A 14 14 0 0 1 287 20 Z " fill-rule="nonzero" fill="#f56c6c" stroke="none" />
    <path d="M 286.5 20  A 14.5 14.5 0 0 1 301 5.5 L 351 5.5  A 14.5 14.5 0 0 1 365.5 20 A 14.5 14.5 0 0 1 351 34.5 L 301 34.5  A 14.5 14.5 0 0 1 286.5 20 Z " stroke-width="1" stroke="#ffffff" fill="none" stroke-opacity="0.2" />
  </g>
</svg>