<?xml version="1.0" encoding="utf-8"?>
<svg version="1.1" xmlns:xlink="http://www.w3.org/1999/xlink" width="12px" height="9px" xmlns="http://www.w3.org/2000/svg">
  <g transform="matrix(1 0 0 1 -252 -164 )">
    <path d="M 11.77734375 0.296875  C 11.92578125 0.494791666666666  12 0.729166666666664  12 1  C 12 1.27083333333333  11.92578125 1.50520833333333  11.77734375 1.703125  L 6.52734375 8.703125  C 6.37890625 8.90104166666667  6.203125 9  6 9  C 5.796875 9  5.62109375 8.90104166666667  5.47265625 8.703125  L 0.22265625 1.703125  C 0.07421875 1.50520833333333  0 1.27083333333333  0 1  C 0 0.729166666666664  0.07421875 0.494791666666666  0.22265625 0.296875  C 0.37109375 0.0989583333333321  0.546875 0  0.75 0  L 11.25 0  C 11.453125 0  11.62890625 0.0989583333333321  11.77734375 0.296875  Z " fill-rule="nonzero" fill="#7f7f7f" stroke="none" transform="matrix(1 0 0 1 252 164 )" />
  </g>
</svg>