<?xml version="1.0" encoding="utf-8"?>
<svg version="1.1" xmlns:xlink="http://www.w3.org/1999/xlink" width="140px" height="40px" xmlns="http://www.w3.org/2000/svg">
  <g transform="matrix(1 0 0 1 -727 -1872 )">
    <path d="M 728 1877  A 4 4 0 0 1 732 1873 L 862 1873  A 4 4 0 0 1 866 1877 L 866 1907  A 4 4 0 0 1 862 1911 L 732 1911  A 4 4 0 0 1 728 1907 L 728 1877  Z " fill-rule="nonzero" fill="#f0f7ff" stroke="none" />
    <path d="M 727.5 1877  A 4.5 4.5 0 0 1 732 1872.5 L 862 1872.5  A 4.5 4.5 0 0 1 866.5 1877 L 866.5 1907  A 4.5 4.5 0 0 1 862 1911.5 L 732 1911.5  A 4.5 4.5 0 0 1 727.5 1907 L 727.5 1877  Z " stroke-width="1" stroke="#7abbff" fill="none" stroke-opacity="0.996078431372549" />
  </g>
</svg>