<?xml version="1.0" encoding="utf-8"?>
<svg version="1.1" xmlns:xlink="http://www.w3.org/1999/xlink" width="29px" height="30px" xmlns="http://www.w3.org/2000/svg">
  <g transform="matrix(1 0 0 1 -29 -33 )">
    <path d="M 7.39813701923077 22.6302083333333  C 7.83383413461539 23.0642361111111  8.05168269230769 23.587962962963  8.05168269230769 24.2013888888889  C 8.05168269230769 24.8148148148148  7.83383413461539 25.3385416666667  7.39813701923077 25.7725694444444  C 6.96243990384615 26.2065972222222  6.43669871794872 26.4236111111111  5.82091346153846 26.4236111111111  C 5.2167467948718 26.4236111111111  4.69391025641026 26.2037037037037  4.25240384615385 25.7638888888889  C 3.81089743589744 25.3240740740741  3.59014423076923 24.8032407407407  3.59014423076923 24.2013888888889  C 3.59014423076923 23.587962962963  3.80799278846154 23.0642361111111  4.24368990384615 22.6302083333333  C 4.67938701923077 22.1961805555556  5.20512820512821 21.9791666666667  5.82091346153846 21.9791666666667  C 6.43669871794872 21.9791666666667  6.96243990384615 22.1961805555556  7.39813701923077 22.6302083333333  Z M 16.0772235576923 26.2065972222222  C 16.5129206730769 26.640625  16.7307692307692 27.1643518518519  16.7307692307692 27.7777777777778  C 16.7307692307692 28.3912037037037  16.5129206730769 28.9149305555556  16.0772235576923 29.3489583333333  C 15.6415264423077 29.7829861111111  15.1157852564103 30  14.5 30  C 13.8842147435897 30  13.3584735576923 29.7829861111111  12.9227764423077 29.3489583333333  C 12.4870793269231 28.9149305555556  12.2692307692308 28.3912037037037  12.2692307692308 27.7777777777778  C 12.2692307692308 27.1643518518519  12.4870793269231 26.640625  12.9227764423077 26.2065972222222  C 13.3584735576923 25.7725694444444  13.8842147435897 25.5555555555556  14.5 25.5555555555556  C 15.1157852564103 25.5555555555556  15.6415264423077 25.7725694444444  16.0772235576923 26.2065972222222  Z M 3.80799278846154 13.984375  C 4.24368990384615 14.4184027777778  4.46153846153846 14.9421296296296  4.46153846153846 15.5555555555556  C 4.46153846153846 16.1689814814815  4.24368990384615 16.6927083333333  3.80799278846154 17.1267361111111  C 3.37229567307692 17.5607638888889  2.84655448717949 17.7777777777778  2.23076923076923 17.7777777777778  C 1.61498397435897 17.7777777777778  1.08924278846154 17.5607638888889  0.653545673076923 17.1267361111111  C 0.217848557692308 16.6927083333333  0 16.1689814814815  0 15.5555555555556  C 0 14.9421296296296  0.217848557692308 14.4184027777778  0.653545673076923 13.984375  C 1.08924278846154 13.5503472222222  1.61498397435897 13.3333333333333  2.23076923076923 13.3333333333333  C 2.84655448717949 13.3333333333333  3.37229567307692 13.5503472222222  3.80799278846154 13.984375  Z M 24.7563100961538 22.6302083333333  C 25.1920072115385 23.0642361111111  25.4098557692308 23.587962962963  25.4098557692308 24.2013888888889  C 25.4098557692308 24.8032407407407  25.1891025641026 25.3240740740741  24.7475961538462 25.7638888888889  C 24.3060897435897 26.2037037037037  23.7832532051282 26.4236111111111  23.1790865384615 26.4236111111111  C 22.5633012820513 26.4236111111111  22.0375600961538 26.2065972222222  21.6018629807692 25.7725694444444  C 21.1661658653846 25.3385416666667  20.9483173076923 24.8148148148148  20.9483173076923 24.2013888888889  C 20.9483173076923 23.587962962963  21.1661658653846 23.0642361111111  21.6018629807692 22.6302083333333  C 22.0375600961538 22.1961805555556  22.5633012820513 21.9791666666667  23.1790865384615 21.9791666666667  C 23.7948717948718 21.9791666666667  24.3206129807692 22.1961805555556  24.7563100961538 22.6302083333333  Z M 7.79026442307692 4.94791666666667  C 8.33633814102564 5.49189814814815  8.609375 6.14583333333333  8.609375 6.90972222222222  C 8.609375 7.67361111111111  8.33633814102564 8.32754629629629  7.79026442307692 8.87152777777778  C 7.24419070512821 9.41550925925926  6.58774038461538 9.6875  5.82091346153846 9.6875  C 5.05408653846154 9.6875  4.39763621794872 9.41550925925926  3.8515625 8.87152777777778  C 3.30548878205128 8.32754629629629  3.03245192307692 7.67361111111111  3.03245192307692 6.90972222222222  C 3.03245192307692 6.14583333333333  3.30548878205128 5.49189814814815  3.8515625 4.94791666666667  C 4.39763621794872 4.40393518518518  5.05408653846154 4.13194444444445  5.82091346153846 4.13194444444445  C 6.58774038461538 4.13194444444445  7.24419070512821 4.40393518518518  7.79026442307692 4.94791666666667  Z M 28.3464543269231 13.984375  C 28.7821514423077 14.4184027777778  29 14.9421296296296  29 15.5555555555556  C 29 16.1689814814815  28.7821514423077 16.6927083333333  28.3464543269231 17.1267361111111  C 27.9107572115385 17.5607638888889  27.385016025641 17.7777777777778  26.7692307692308 17.7777777777778  C 26.1534455128205 17.7777777777778  25.6277043269231 17.5607638888889  25.1920072115385 17.1267361111111  C 24.7563100961538 16.6927083333333  24.5384615384615 16.1689814814815  24.5384615384615 15.5555555555556  C 24.5384615384615 14.9421296296296  24.7563100961538 14.4184027777778  25.1920072115385 13.984375  C 25.6277043269231 13.5503472222222  26.1534455128205 13.3333333333333  26.7692307692308 13.3333333333333  C 27.385016025641 13.3333333333333  27.9107572115385 13.5503472222222  28.3464543269231 13.984375  Z M 16.8701923076923 0.972222222222223  C 17.5208333333333 1.62037037037037  17.8461538461538 2.4074074074074  17.8461538461538 3.33333333333333  C 17.8461538461538 4.25925925925926  17.5208333333333 5.04629629629629  16.8701923076923 5.69444444444444  C 16.2195512820513 6.34259259259259  15.4294871794872 6.66666666666667  14.5 6.66666666666667  C 13.5705128205128 6.66666666666667  12.7804487179487 6.34259259259259  12.1298076923077 5.69444444444444  C 11.4791666666667 5.04629629629629  11.1538461538462 4.25925925925926  11.1538461538462 3.33333333333333  C 11.1538461538462 2.4074074074074  11.4791666666667 1.62037037037037  12.1298076923077 0.972222222222223  C 12.7804487179487 0.324074074074076  13.5705128205128 0  14.5 0  C 15.4294871794872 0  16.2195512820513 0.324074074074076  16.8701923076923 0.972222222222223  Z M 25.9326923076923 4.16666666666667  C 26.6995192307692 4.93055555555556  27.0829326923077 5.84490740740741  27.0829326923077 6.90972222222222  C 27.0829326923077 7.98611111111111  26.6995192307692 8.90335648148148  25.9326923076923 9.66145833333334  C 25.1658653846154 10.4195601851852  24.2479967948718 10.7986111111111  23.1790865384615 10.7986111111111  C 22.0985576923077 10.7986111111111  21.1777844551282 10.4195601851852  20.4167668269231 9.66145833333334  C 19.6557491987179 8.90335648148148  19.2752403846154 7.98611111111111  19.2752403846154 6.90972222222222  C 19.2752403846154 5.84490740740741  19.6557491987179 4.93055555555556  20.4167668269231 4.16666666666667  C 21.1777844551282 3.40277777777778  22.0985576923077 3.02083333333333  23.1790865384615 3.02083333333333  C 24.2479967948718 3.02083333333333  25.1658653846154 3.40277777777778  25.9326923076923 4.16666666666667  Z " fill-rule="nonzero" fill="#aaaaaa" stroke="none" transform="matrix(1 0 0 1 29 33 )" />
  </g>
</svg>