<?xml version="1.0" encoding="utf-8"?>
<svg version="1.1" xmlns:xlink="http://www.w3.org/1999/xlink" width="16px" height="16px" xmlns="http://www.w3.org/2000/svg">
  <g transform="matrix(1 0 0 1 -76 0 )">
    <path d="M 13.1354166666667 9.13541666666667  C 13.2673611111111 9.00347222222222  13.3333333333333 8.84722222222222  13.3333333333333 8.66666666666667  L 13.3333333333333 7.33333333333333  C 13.3333333333333 7.15277777777778  13.2673611111111 6.99652777777778  13.1354166666667 6.86458333333333  C 13.0034722222222 6.73263888888889  12.8472222222222 6.66666666666667  12.6666666666667 6.66666666666667  L 3.33333333333333 6.66666666666667  C 3.15277777777778 6.66666666666667  2.99652777777778 6.73263888888889  2.86458333333333 6.86458333333333  C 2.73263888888889 6.99652777777778  2.66666666666667 7.15277777777778  2.66666666666667 7.33333333333333  L 2.66666666666667 8.66666666666667  C 2.66666666666667 8.84722222222222  2.73263888888889 9.00347222222222  2.86458333333333 9.13541666666667  C 2.99652777777778 9.26736111111111  3.15277777777778 9.33333333333333  3.33333333333333 9.33333333333333  L 12.6666666666667 9.33333333333333  C 12.8472222222222 9.33333333333333  13.0034722222222 9.26736111111111  13.1354166666667 9.13541666666667  Z M 15.1197916666667 0.880208333333334  C 15.7065972222222 1.46701388888889  16 2.17361111111111  16 3  L 16 13  C 16 13.8263888888889  15.7065972222222 14.5329861111111  15.1197916666667 15.1197916666667  C 14.5329861111111 15.7065972222222  13.8263888888889 16  13 16  L 3 16  C 2.17361111111111 16  1.46701388888889 15.7065972222222  0.880208333333333 15.1197916666667  C 0.293402777777778 14.5329861111111  0 13.8263888888889  0 13  L 0 3  C 0 2.17361111111111  0.293402777777778 1.46701388888889  0.880208333333333 0.880208333333334  C 1.46701388888889 0.293402777777777  2.17361111111111 0  3 0  L 13 0  C 13.8263888888889 0  14.5329861111111 0.293402777777777  15.1197916666667 0.880208333333334  Z " fill-rule="nonzero" fill="#2b85e4" stroke="none" transform="matrix(1 0 0 1 76 0 )" />
  </g>
</svg>