<?xml version="1.0" encoding="utf-8"?>
<svg version="1.1" xmlns:xlink="http://www.w3.org/1999/xlink" width="82px" height="82px" xmlns="http://www.w3.org/2000/svg">
  <g transform="matrix(1 0 0 1 -237 -331 )">
    <path d="M 63.5286458333333 34.1666666666667  C 63.5286458333333 35.0920138888889  63.1905381944445 35.8927951388889  62.5143229166667 36.5690104166667  L 39.9856770833333 59.09765625  C 39.3094618055556 59.7738715277778  38.5086805555556 60.1119791666667  37.5833333333333 60.1119791666667  C 36.6579861111111 60.1119791666667  35.8572048611111 59.7738715277778  35.1809895833333 59.09765625  L 19.4856770833333 43.40234375  C 18.8094618055556 42.7261284722222  18.4713541666667 41.9253472222222  18.4713541666667 41  C 18.4713541666667 40.0746527777778  18.8094618055556 39.2738715277778  19.4856770833333 38.59765625  L 24.9309895833333 33.15234375  C 25.6072048611111 32.4761284722222  26.4079861111111 32.1380208333333  27.3333333333333 32.1380208333333  C 28.2586805555556 32.1380208333333  29.0594618055556 32.4761284722222  29.7356770833333 33.15234375  L 37.5833333333333 41  L 52.2643229166667 26.3190104166667  C 52.9405381944445 25.6427951388889  53.7413194444445 25.3046875  54.6666666666667 25.3046875  C 55.5920138888889 25.3046875  56.3927951388889 25.6427951388889  57.0690104166667 26.3190104166667  L 62.5143229166667 31.7643229166667  C 63.1905381944445 32.4405381944444  63.5286458333333 33.2413194444444  63.5286458333333 34.1666666666667  Z M 66.14453125 55.57421875  C 68.7426215277778 51.1254340277778  70.0416666666667 46.2673611111111  70.0416666666667 41  C 70.0416666666667 35.7326388888889  68.7426215277778 30.8745659722222  66.14453125 26.42578125  C 63.5464409722222 21.9769965277778  60.0230034722222 18.4535590277778  55.57421875 15.85546875  C 51.1254340277778 13.2573784722222  46.2673611111111 11.9583333333333  41 11.9583333333333  C 35.7326388888889 11.9583333333333  30.8745659722222 13.2573784722222  26.42578125 15.85546875  C 21.9769965277778 18.4535590277778  18.4535590277778 21.9769965277778  15.85546875 26.42578125  C 13.2573784722222 30.8745659722222  11.9583333333333 35.7326388888889  11.9583333333333 41  C 11.9583333333333 46.2673611111111  13.2573784722222 51.1254340277778  15.85546875 55.57421875  C 18.4535590277778 60.0230034722222  21.9769965277778 63.5464409722222  26.42578125 66.14453125  C 30.8745659722222 68.7426215277778  35.7326388888889 70.0416666666667  41 70.0416666666667  C 46.2673611111111 70.0416666666667  51.1254340277778 68.7426215277778  55.57421875 66.14453125  C 60.0230034722222 63.5464409722222  63.5464409722222 60.0230034722222  66.14453125 55.57421875  Z M 76.5013020833333 20.419921875  C 80.1671006944444 26.7016059027778  82 33.5616319444444  82 41  C 82 48.4383680555556  80.1671006944444 55.2983940972222  76.5013020833333 61.580078125  C 72.8355034722222 67.8617621527778  67.8617621527778 72.8355034722222  61.580078125 76.5013020833333  C 55.2983940972222 80.1671006944445  48.4383680555556 82  41 82  C 33.5616319444445 82  26.7016059027778 80.1671006944445  20.419921875 76.5013020833333  C 14.1382378472222 72.8355034722222  9.16449652777778 67.8617621527778  5.49869791666667 61.580078125  C 1.83289930555556 55.2983940972222  0 48.4383680555556  0 41  C 0 33.5616319444444  1.83289930555556 26.7016059027778  5.49869791666667 20.419921875  C 9.16449652777778 14.1382378472222  14.1382378472222 9.16449652777777  20.419921875 5.49869791666666  C 26.7016059027778 1.83289930555555  33.5616319444445 0  41 0  C 48.4383680555556 0  55.2983940972222 1.83289930555555  61.580078125 5.49869791666666  C 67.8617621527778 9.16449652777777  72.8355034722222 14.1382378472222  76.5013020833333 20.419921875  Z " fill-rule="nonzero" fill="#ffffff" stroke="none" transform="matrix(1 0 0 1 237 331 )" />
  </g>
</svg>