<?xml version="1.0" encoding="utf-8"?>
<svg version="1.1" xmlns:xlink="http://www.w3.org/1999/xlink" width="13px" height="20px" xmlns="http://www.w3.org/2000/svg">
  <g transform="matrix(1 0 0 1 -101 -110 )">
    <path d="M 13 2.85359801488834  C 13 3.0686517783292  12.9205276705277 3.25475599669148  12.761583011583 3.41191066997519  L 6.0984555984556 10  L 12.761583011583 16.5880893300248  C 12.9205276705277 16.7452440033085  13 16.9313482216708  13 17.1464019851117  C 13 17.3614557485525  12.9205276705277 17.5475599669148  12.761583011583 17.7047146401985  L 10.6785714285714 19.7642679900744  C 10.5196267696268 19.9214226633581  10.3314028314028 20  10.1138996138996 20  C 9.8963963963964 20  9.70817245817246 19.9214226633581  9.5492277992278 19.7642679900744  L 0.238416988416988 10.5583126550868  C 0.0794723294723296 10.4011579818031  0 10.2150537634409  0 10  C 0 9.78494623655914  0.0794723294723296 9.59884201819686  0.238416988416988 9.44168734491315  L 9.5492277992278 0.235732009925558  C 9.70817245817246 0.0785773366418518  9.8963963963964 0  10.1138996138996 0  C 10.3314028314028 0  10.5196267696268 0.0785773366418518  10.6785714285714 0.235732009925558  L 12.761583011583 2.29528535980149  C 12.9205276705277 2.45244003308519  13 2.63854425144747  13 2.85359801488834  Z " fill-rule="nonzero" fill="#ffffff" stroke="none" transform="matrix(1 0 0 1 101 110 )" />
  </g>
</svg>