<?xml version="1.0" encoding="utf-8"?>
<svg version="1.1" xmlns:xlink="http://www.w3.org/1999/xlink" width="140px" height="40px" xmlns="http://www.w3.org/2000/svg">
  <g transform="matrix(1 0 0 1 1468 -1375 )">
    <path d="M -1467 1380  A 4 4 0 0 1 -1463 1376 L -1333 1376  A 4 4 0 0 1 -1329 1380 L -1329 1410  A 4 4 0 0 1 -1333 1414 L -1463 1414  A 4 4 0 0 1 -1467 1410 L -1467 1380  Z " fill-rule="nonzero" fill="#f0f7ff" stroke="none" />
    <path d="M -1467.5 1380  A 4.5 4.5 0 0 1 -1463 1375.5 L -1333 1375.5  A 4.5 4.5 0 0 1 -1328.5 1380 L -1328.5 1410  A 4.5 4.5 0 0 1 -1333 1414.5 L -1463 1414.5  A 4.5 4.5 0 0 1 -1467.5 1410 L -1467.5 1380  Z " stroke-width="1" stroke="#7abbff" fill="none" stroke-opacity="0.996078431372549" />
  </g>
</svg>