<?xml version="1.0" encoding="utf-8"?>
<svg version="1.1" xmlns:xlink="http://www.w3.org/1999/xlink" width="140px" height="40px" xmlns="http://www.w3.org/2000/svg">
  <g transform="matrix(1 0 0 1 1468 -1435 )">
    <path d="M -1467.5 1445  A 9.5 9.5 0 0 1 -1458 1435.5 L -1338 1435.5  A 9.5 9.5 0 0 1 -1328.5 1445 L -1328.5 1465  A 9.5 9.5 0 0 1 -1338 1474.5 L -1458 1474.5  A 9.5 9.5 0 0 1 -1467.5 1465 L -1467.5 1445  Z " fill-rule="nonzero" fill="#ff9900" stroke="none" />
    <path d="M -1467.5 1445  A 9.5 9.5 0 0 1 -1458 1435.5 L -1338 1435.5  A 9.5 9.5 0 0 1 -1328.5 1445 L -1328.5 1465  A 9.5 9.5 0 0 1 -1338 1474.5 L -1458 1474.5  A 9.5 9.5 0 0 1 -1467.5 1465 L -1467.5 1445  Z " stroke-width="1" stroke="#ff9900" fill="none" />
  </g>
</svg>