<?xml version="1.0" encoding="utf-8"?>
<svg version="1.1" xmlns:xlink="http://www.w3.org/1999/xlink" width="140px" height="40px" xmlns="http://www.w3.org/2000/svg">
  <g transform="matrix(1 0 0 1 1468 -1435 )">
    <path d="M -1467 1445  A 9 9 0 0 1 -1458 1436 L -1338 1436  A 9 9 0 0 1 -1329 1445 L -1329 1465  A 9 9 0 0 1 -1338 1474 L -1458 1474  A 9 9 0 0 1 -1467 1465 L -1467 1445  Z " fill-rule="nonzero" fill="#fff7eb" stroke="none" fill-opacity="0.996078431372549" />
    <path d="M -1467.5 1445  A 9.5 9.5 0 0 1 -1458 1435.5 L -1338 1435.5  A 9.5 9.5 0 0 1 -1328.5 1445 L -1328.5 1465  A 9.5 9.5 0 0 1 -1338 1474.5 L -1458 1474.5  A 9.5 9.5 0 0 1 -1467.5 1465 L -1467.5 1445  Z " stroke-width="1" stroke="#ffb84d" fill="none" stroke-opacity="0.996078431372549" />
  </g>
</svg>