<?xml version="1.0" encoding="utf-8"?>
<svg version="1.1" xmlns:xlink="http://www.w3.org/1999/xlink" width="15px" height="13px" xmlns="http://www.w3.org/2000/svg">
  <g transform="matrix(1 0 0 1 -34 0 )">
    <path d="M 9.64285714285714 10.181640625  C 9.71540178571429 10.181640625  9.77957589285714 10.1534288194444  9.83537946428572 10.0970052083333  L 11.0574776785714 8.861328125  C 11.11328125 8.80490451388889  11.1411830357143 8.74001736111111  11.1411830357143 8.66666666666667  C 11.1411830357143 8.59331597222222  11.11328125 8.52842881944444  11.0574776785714 8.47200520833333  L 9.10714285714286 6.5  L 11.0574776785714 4.52799479166667  C 11.11328125 4.47157118055556  11.1411830357143 4.40668402777778  11.1411830357143 4.33333333333333  C 11.1411830357143 4.25998263888889  11.11328125 4.19509548611111  11.0574776785714 4.138671875  L 9.83537946428572 2.90299479166667  C 9.77957589285714 2.84657118055555  9.71540178571429 2.818359375  9.64285714285714 2.818359375  C 9.5703125 2.818359375  9.50613839285714 2.84657118055555  9.45033482142857 2.90299479166667  L 7.5 4.875  L 5.54966517857143 2.90299479166667  C 5.49386160714286 2.84657118055555  5.4296875 2.818359375  5.35714285714286 2.818359375  C 5.28459821428571 2.818359375  5.22042410714286 2.84657118055555  5.16462053571429 2.90299479166667  L 3.94252232142857 4.138671875  C 3.88671875 4.19509548611111  3.85881696428571 4.25998263888889  3.85881696428571 4.33333333333333  C 3.85881696428571 4.40668402777778  3.88671875 4.47157118055556  3.94252232142857 4.52799479166667  L 5.89285714285714 6.5  L 3.94252232142857 8.47200520833333  C 3.88671875 8.52842881944444  3.85881696428571 8.59331597222222  3.85881696428571 8.66666666666667  C 3.85881696428571 8.74001736111111  3.88671875 8.80490451388889  3.94252232142857 8.861328125  L 5.16462053571429 10.0970052083333  C 5.22042410714286 10.1534288194444  5.28459821428571 10.181640625  5.35714285714286 10.181640625  C 5.4296875 10.181640625  5.49386160714286 10.1534288194444  5.54966517857143 10.0970052083333  L 7.5 8.125  L 9.45033482142857 10.0970052083333  C 9.50613839285714 10.1534288194444  9.5703125 10.181640625  9.64285714285714 10.181640625  Z M 14.6065848214286 0.397786458333334  C 14.8688616071429 0.662977430555555  15 0.981770833333334  15 1.35416666666667  L 15 11.6458333333333  C 15 12.0182291666667  14.8688616071429 12.3370225694444  14.6065848214286 12.6022135416667  C 14.3443080357143 12.8674045138889  14.0290178571429 13  13.6607142857143 13  L 1.33928571428571 13  C 0.970982142857143 13  0.655691964285714 12.8674045138889  0.393415178571429 12.6022135416667  C 0.131138392857143 12.3370225694444  0 12.0182291666667  0 11.6458333333333  L 0 1.35416666666667  C 0 0.981770833333334  0.131138392857143 0.662977430555555  0.393415178571429 0.397786458333334  C 0.655691964285714 0.13259548611111  0.970982142857143 0  1.33928571428571 0  L 13.6607142857143 0  C 14.0290178571429 0  14.3443080357143 0.13259548611111  14.6065848214286 0.397786458333334  Z " fill-rule="nonzero" fill="#f56c6c" stroke="none" transform="matrix(1 0 0 1 34 0 )" />
  </g>
</svg>