<?xml version="1.0" encoding="utf-8"?>
<svg version="1.1" xmlns:xlink="http://www.w3.org/1999/xlink" width="513px" height="159px" xmlns="http://www.w3.org/2000/svg">
  <g transform="matrix(1 0 0 1 -265 -410 )">
    <path d="M 266 415  A 4 4 0 0 1 270 411 L 773 411  A 4 4 0 0 1 777 415 L 777 564  A 4 4 0 0 1 773 568 L 270 568  A 4 4 0 0 1 266 564 L 266 415  Z " fill-rule="nonzero" fill="#ffffff" stroke="none" />
    <path d="M 265.5 415  A 4.5 4.5 0 0 1 270 410.5 L 773 410.5  A 4.5 4.5 0 0 1 777.5 415 L 777.5 564  A 4.5 4.5 0 0 1 773 568.5 L 270 568.5  A 4.5 4.5 0 0 1 265.5 564 L 265.5 415  Z " stroke-width="1" stroke-dasharray="3,1" stroke="#f56c6c" fill="none" stroke-dashoffset="0.5" />
  </g>
</svg>