<?xml version="1.0" encoding="utf-8"?>
<svg version="1.1" xmlns:xlink="http://www.w3.org/1999/xlink" width="11px" height="11px" xmlns="http://www.w3.org/2000/svg">
  <g transform="matrix(1 0 0 1 -156 -24 )">
    <path d="M 4.58333333333333 8.52213541666667  C 4.70746527777778 8.52213541666667  4.81488715277778 8.47677951388889  4.90559895833333 8.38606770833333  L 9.302734375 3.98893229166667  C 9.39344618055556 3.89822048611111  9.43880208333333 3.79079861111111  9.43880208333333 3.66666666666667  C 9.43880208333333 3.54253472222222  9.39344618055556 3.43511284722222  9.302734375 3.34440104166667  L 8.572265625 2.61393229166667  C 8.48155381944445 2.52322048611111  8.37413194444445 2.47786458333333  8.25 2.47786458333333  C 8.12586805555556 2.47786458333333  8.01844618055556 2.52322048611111  7.927734375 2.61393229166667  L 4.58333333333333 5.95833333333333  L 3.072265625 4.447265625  C 2.98155381944445 4.35655381944444  2.87413194444445 4.31119791666667  2.75 4.31119791666667  C 2.62586805555556 4.31119791666667  2.51844618055556 4.35655381944444  2.427734375 4.447265625  L 1.697265625 5.177734375  C 1.60655381944444 5.26844618055556  1.56119791666667 5.37586805555556  1.56119791666667 5.5  C 1.56119791666667 5.62413194444444  1.60655381944444 5.73155381944444  1.697265625 5.822265625  L 4.26106770833333 8.38606770833333  C 4.35177951388889 8.47677951388889  4.45920138888889 8.52213541666667  4.58333333333333 8.52213541666667  Z M 10.3948567708333 0.605143229166667  C 10.7982855902778 1.00857204861111  11 1.49435763888889  11 2.0625  L 11 8.9375  C 11 9.50564236111111  10.7982855902778 9.99142795138889  10.3948567708333 10.3948567708333  C 9.99142795138889 10.7982855902778  9.50564236111111 11  8.9375 11  L 2.0625 11  C 1.49435763888889 11  1.00857204861111 10.7982855902778  0.605143229166667 10.3948567708333  C 0.201714409722222 9.99142795138889  0 9.50564236111111  0 8.9375  L 0 2.0625  C 0 1.49435763888889  0.201714409722222 1.00857204861111  0.605143229166667 0.605143229166667  C 1.00857204861111 0.201714409722222  1.49435763888889 0  2.0625 0  L 8.9375 0  C 9.50564236111111 0  9.99142795138889 0.201714409722222  10.3948567708333 0.605143229166667  Z " fill-rule="nonzero" fill="#f56c6c" stroke="none" transform="matrix(1 0 0 1 156 24 )" />
  </g>
</svg>